<?xml version="1.0" encoding="utf-8"?>
<!-- Generator: Adobe Illustrator 25.4.1, SVG Export Plug-In . SVG Version: 6.00 Build 0)  -->
<svg version="1.1" xmlns="http://www.w3.org/2000/svg" xmlns:xlink="http://www.w3.org/1999/xlink" x="0px" y="0px"
	 viewBox="0 0 792 612" style="enable-background:new 0 0 792 612;" xml:space="preserve">
<style type="text/css">
	.st0{fill:#FFFFFF;}
	.st1{fill:#FFFFFF;stroke:#FF0000;stroke-width:1.7777;stroke-miterlimit:17.7777;}
	.st2{fill:none;stroke:#FF0000;stroke-width:1.7777;stroke-miterlimit:7.1111;}
	.st3{fill:none;stroke:#231F20;stroke-width:0.7209;stroke-miterlimit:10;}
	.st4{font-family:'BalooThambi-Regular';}
	.st5{font-size:13.6975px;}
	.st6{fill:none;stroke:#231F20;stroke-width:0.8189;stroke-miterlimit:10;}
	.st7{fill:none;stroke:#231F20;stroke-width:1.0894;stroke-miterlimit:10;}
	.st8{fill:none;stroke:#231F20;stroke-width:2.0876;stroke-miterlimit:10;}
	.st9{fill:none;stroke:#231F20;stroke-width:2.0531;stroke-miterlimit:10;}
	.st10{fill:none;stroke:#000000;stroke-width:0.5;stroke-miterlimit:10;}
	.st11{font-family:'MyriadPro-Regular';}
	.st12{font-size:16.8315px;}
	.st13{font-size:19.8811px;}
	.st14{fill:none;stroke:#231F20;stroke-width:0.9874;stroke-miterlimit:10;}
</style>
<g id="Layer_1">
	
		<g id="Layer_1_00000083791294949552107160000016041713481570450820_" inkscape:version="0.92.4 (5da689c313, 2019-01-14)" sodipodi:docname="Bubble Pack templatev2.svg" xmlns:cc="http://creativecommons.org/ns#" xmlns:dc="http://purl.org/dc/elements/1.1/" xmlns:inkscape="http://www.inkscape.org/namespaces/inkscape" xmlns:osb="http://www.openswatchbook.org/uri/2009/osb" xmlns:rdf="http://www.w3.org/1999/02/22-rdf-syntax-ns#" xmlns:sodipodi="http://sodipodi.sourceforge.net/DTD/sodipodi-0.dtd" xmlns:svg="http://www.w3.org/2000/svg">
		<g id="Layer_2_1_" transform="scale(1.3333333)">
			<rect id="rect4" y="0" class="st0" width="594" height="459"/>
		</g>
		<g id="svg15158" transform="scale(1.3333333)" inkscape:version="0.91 r13725" sodipodi:docname="AxiDraw_First.svg">
			<path id="path11" inkscape:connector-curvature="0" class="st1" d="M56.6,146v12.6H44.7c-17.2,0-31.2,14.1-31.2,31.3v79.4
				c0,17.2,14,31.2,31.2,31.2h11.9v12.7c0,17.2,14,31.2,31.2,31.2h130.8h12.1h275.4c17.2,0,31.2-14,31.2-31.2v-12.6h11.9
				c17.2,0,31.2-14,31.2-31.2V190c0-17.2-14-31.2-31.2-31.2h-11.9v-12.6c0-17.2-14-31.2-31.2-31.2H230.7h-12.1H87.9
				C70.7,114.8,56.6,128.9,56.6,146L56.6,146z"/>
			<path id="path7" inkscape:connector-curvature="0" class="st1" d="M43.4,204v15.9c-0.1,0-0.1,0-0.1,0c-5.3,0-9.7,4.3-9.7,9.7
				c0,5.3,4.4,9.7,9.7,9.7c0.1,0,0.1,0,0.2,0v15.9c0,2.8,2.3,5,5,5h1.9c2.8,0,5-2.3,5-5V204c0-2.8-2.3-5-5-5h-1.9
				C45.7,199,43.4,201.2,43.4,204z"/>
			<path id="path9" inkscape:connector-curvature="0" class="st1" d="M550.6,255.2v-15.9c0.1,0,0.1,0,0.2,0c5.3,0,9.7-4.3,9.7-9.7
				c0-5.3-4.3-9.7-9.7-9.7c-0.1,0-0.1,0-0.2,0V204c0-2.8-2.3-5-5-5h-1.9c-2.8,0-5,2.3-5,5v51.2c0,2.8,2.3,5,5,5h1.9
				C548.3,260.2,550.6,257.9,550.6,255.2z"/>
			<g id="g19">
				<line id="line13" class="st2" x1="297" y1="343.7" x2="297" y2="341.5"/>
				<line id="line15" class="st2" x1="297" y1="336.8" x2="297" y2="119.3"/>
				<line id="line17" class="st2" x1="297" y1="116.9" x2="297" y2="114.7"/>
			</g>
		</g>
	</g>
	<g id="Layer_2_00000071537131286467070190000013159126085591039665_">
	</g>
</g>
<g id="Layer_2">
	<path class="st3" d="M251.1,223.1L201.2,237l8.3,25.5c0.1,1,7.3,7.7,14.7,6c2.9-0.7,5.4-2.4,7.4-6.2c0.7-1.4,1.2-4.1,2.4-6
		c9.5-15.2,18.2-28.1,18.2-28.1L251.1,223.1z"/>
	<polygon class="st3" points="244.7,230.4 229.4,234.4 232.8,246.7 	"/>
	<path class="st3" d="M225.7,235.3l-18.2,4.8l5.8,19.6c0,0,4.1,5.4,10.7,3.7c6.6-1.7,6.1-7.2,6.6-9.4
		C231.1,251.9,225.7,235.3,225.7,235.3z"/>
	<path class="st3" d="M261.1,261.6c0,0-26.1,7.2-34.2,9.6c-3.9,1.1-13.5,10.3-10.2,22.8c3.4,12.9,19.4,13,19.4,13l34.7-10.1
		l-1.2-4.9l-35.4,10.1c0,0-10.5-2.2-12.8-9.5c-2-6.3,2-14.2,7.6-16.8c2.2-1,4.9-1.1,4.9-1.1l32.7,9L261.1,261.6z"/>
	<polygon class="st3" points="244.7,271.8 257.1,267.9 259.2,276.3 	"/>
	<path class="st3" d="M270.6,340l5.2,1.1c0,0,3.6-10.5,1.3-17.3c-3.2-9.3-13.1-16.9-23-16.5c-3.1,0.1-11.2,0.6-18.4,5.3
		c-5.9,3.9-9.9,13.1-9.6,20.6c0.3,8.4,6.3,14.2,6.3,14.2l-1.5,2.7l1.4,4l3.4-4.4l3.5,2.9l19.6-5.4l-6.7-23.7l-15.7,19.3l-2,0.8
		c0,0-6.4-7.7-3.8-16.1c1.9-6.1,6.4-9.5,8.2-10.7c1.7-1.2,7.1-3.4,14.4-4.2c7.4-0.7,16.7,4.7,18.2,11.4
		C272.8,329.9,270.6,340,270.6,340z"/>
	<polygon class="st3" points="249.5,334.3 252.1,343.8 239.1,347.1 	"/>
	<path class="st3" d="M283,382.1l-3.7-2.8c0,0,3.3-8.7,1.9-13.7c-1.2-4.3-7.5-8.3-11.1-6.5c-7.2,3.6-6.9,5.7-7.2,15.9
		c-0.3,11.8-3.7,13.6-6.3,15.4c-4.5,3.1-10.8,1.8-15.2-1.7c-9.2-7.3-2.4-27.4-2.4-27.4l18.8,6.4c0,0,1.2-10.3,10.4-13.1
		c5.7-1.7,14.8,1.6,17.3,9C288.3,371.8,283,382.1,283,382.1z"/>
	<polygon class="st3" points="257.9,372.8 258.5,378 240.6,372.7 241.4,367.7 	"/>
	<path class="st3" d="M240.7,377.9l16.5,5c0,0-3,6.3-10.4,4.3c-2.8-0.7-4.4-2.9-4.6-3.2C241.1,382.5,240.7,377.9,240.7,377.9z"/>
	<text transform="matrix(0.2937 0.9559 -0.9559 0.2937 187.7969 238.3747)" class="st3 st4 st5">The MINI</text>
	<path class="st3" d="M310.4,255.5l-19.9,19c0,0-1.6-1.9-4.8-3.2c-2.7-1.1-7.4-0.5-7.4-0.5l-1-2.5l-4.1,1.3l10.2,33.1l4-1.3
		l-0.6-2.1c0,0,3.6-1.7,5.5-4.5c1.8-2.5,2.6-5.4,2.6-5.4l26.6,4.1c0,0,1.8,2.7,3.7,2.8c1.7,0.1,4.1-1.1,4.5-3.5
		c0.4-2.2-1.2-4.2-2.7-4.7c-1.8-0.6-4.6,1.1-4.6,1.1l-27.1-4.2c0,0,0.1-1.9-0.5-4c-0.6-1.9-1.6-3.4-1.6-3.4l19.5-18.7
		c0,0,3,0.1,4.3-1.2c1.2-1.2,1.9-3.6,0.6-5.5c-1.5-2.1-4.6-2.1-6.1-1C310.3,252.4,310.4,255.5,310.4,255.5z"/>
	<path class="st6" d="M222.9,226.8c5.6-5,8.6-9.9,8.6-9.9c9.8-19,11.6-23.9,13.2-31.7c0.9-4.5-0.1-8.9-3-11.3
		c-6.6-5.4-23.6,4.6-29.9,14.6c-2.6,4.2-2.6,12.2,0.5,18.3c2,3.8,5,6.1,7.3,12.8c0.4,1.1,2,5.9,1.1,6.4c-1.3,0.8-4.2-6.8-13.1-14.3
		c-9-7.5-15.9-10.4-18.7-11.5c-3.4-1.4-10.2-3.2-15.4-0.2c-2.5,1.5,0.8,7.1,3,9.9c3.9,4.8,12.2,6.8,25.9,9.9
		c8.9,2,11.9,3.8,11.9,3.8l6.8,3.8C221.1,227.3,222.5,227.2,222.9,226.8z"/>
	<path class="st6" d="M265.1,390.5c7.4,1,12.7,3.5,12.7,3.5c18.7,10.4,22.8,13.5,28.5,19.1c3.2,3.2,4.8,7.5,3.7,11.1
		c-2.5,8.1-22.3,9.2-32.9,4.3c-4.5-2-8.9-8.8-9.7-15.5c-0.5-4.3,0.8-7.9-1-14.7c-0.3-1.1-1.5-6-2.7-5.9c-1.5,0.1,0.3,8-3.1,19.2
		c-3.4,11.3-7.5,17.5-9.2,19.9c-2.1,3.1-6.7,8.3-12.7,8.7c-2.9,0.2-3.3-6.4-3-9.9c0.6-6.2,6.5-12.4,16.1-22.5
		c6.3-6.6,7.8-9.7,7.8-9.7l3.6-6.9C263.3,391.1,264.6,390.5,265.1,390.5z"/>
	<path class="st7" d="M648.8,254.6l-30.7,28c0,0-2.5-2.8-7.4-4.8c-4.1-1.7-11.4-0.7-11.4-0.7l-1.5-3.7l-6.3,1.9l15.7,49l6.2-1.9
		l-1-3.1c0,0,5.6-2.6,8.6-6.6c2.7-3.6,4.1-8,4.1-8l41,6.2c0,0,2.8,4,5.7,4.2c2.6,0.2,6.3-1.6,6.9-5.2c0.6-3.3-1.8-6.2-4.2-7
		c-2.8-0.9-7.1,1.6-7.1,1.6l-41.9-6.3c0,0,0.2-2.8-0.7-5.8c-0.9-2.8-2.5-5.1-2.5-5.1l30.2-27.5c0,0,4.6,0.2,6.7-1.8
		c1.8-1.8,2.9-5.4,0.9-8.1c-2.3-3.2-7.2-3.2-9.4-1.5C648.6,250.1,648.8,254.6,648.8,254.6z"/>
	<path class="st8" d="M523.6,332.7c18.9,2.6,32.2,8.8,32.2,8.8c47.5,26.4,58.1,34.4,72.5,48.7c8.3,8.2,12.2,19.1,9.4,28.2
		c-6.4,20.7-56.8,23.4-84,11.2c-11.5-5.2-22.7-22.3-24.6-39.5c-1.2-10.9,2-20-2.4-37.6c-0.7-2.8-3.9-15.3-6.7-15.2
		c-3.8,0.2,0.7,20.4-7.9,48.9c-8.7,28.7-19.3,44.5-23.5,50.9c-5.3,7.8-17.2,21.3-32.4,22.1c-7.3,0.4-8.4-16.2-7.5-25.2
		c1.6-15.8,16.5-31.7,41.2-57.5c16.2-16.9,20-24.9,20-24.9l9.2-17.6C519,334.1,522.2,332.5,523.6,332.7z"/>
	<path class="st9" d="M514.7,292.4c15.3-11.4,24.4-23.3,24.4-23.3c30.5-46.3,36.5-58.4,43.1-78.1c3.8-11.3,2.9-22.9-3.3-29.6
		c-13.9-15.3-58.8,6.3-77.4,30.2c-7.9,10.1-10.6,30.7-5.3,47c3.4,10.3,9.9,16.9,13.2,34.6c0.5,2.8,2.8,15.5,0.3,16.7
		c-3.4,1.6-7.7-18.5-26.7-39.8c-19.2-21.4-34.8-30.5-41.1-34.1c-7.8-4.4-23.5-10.7-37.1-4.2c-6.5,3.1-0.7,18.5,3.7,26
		c7.7,13.3,27.2,20.3,59.1,31.5c20.9,7.3,27.4,12.6,27.4,12.6l15.1,11.3C510.1,293.4,513.5,293.3,514.7,292.4z"/>
</g>
<g id="Layer_4">
	<text transform="matrix(6.123234e-17 1 -1 6.123234e-17 576.1689 224.8683)" class="st10 st11 st12">feeling buggy</text>
	<text transform="matrix(6.123234e-17 0.8905 -1 5.452963e-17 444.1426 302.709)" class="st10 st11 st13">and mini</text>
</g>
<g id="Layer_3">
	
		<rect x="423.9" y="253" transform="matrix(6.123234e-17 -1 1 6.123234e-17 207.7774 821.5061)" class="st14" width="181.4" height="107.7"/>
</g>
</svg>
